<svg width="229" height="56" viewBox="0 0 229 56" fill="none" xmlns="http://www.w3.org/2000/svg">
<g filter="url(#filter0_d_19_4304)">
<rect x="4" width="221" height="48" rx="12" fill="#EFF9FF" fill-opacity="0.52" shape-rendering="crispEdges"/>
<path d="M28 13.5L19 16.5V25.5C19 30.4711 23.0289 34.5 28 34.5C32.9711 34.5 37 30.4711 37 25.5V16.5L28 13.5ZM35.3125 25.5C35.3125 29.5383 32.0383 32.8125 28 32.8125C23.9617 32.8125 20.6875 29.5383 20.6875 25.5V17.7656L28 15.1875L35.3125 17.7656V25.5Z" fill="#0871B1"/>
<path d="M24.8688 23.1352C24.7906 23.0566 24.6977 22.9943 24.5953 22.9517C24.4929 22.9092 24.3832 22.8873 24.2723 22.8873C24.1615 22.8873 24.0517 22.9092 23.9494 22.9517C23.847 22.9943 23.754 23.0566 23.6758 23.1352C23.5973 23.2134 23.5349 23.3063 23.4924 23.4087C23.4499 23.511 23.428 23.6208 23.428 23.7316C23.428 23.8425 23.4499 23.9522 23.4924 24.0546C23.5349 24.157 23.5973 24.2499 23.6758 24.3281L26.7087 27.3609L26.7579 27.4102C26.8319 27.4843 26.9197 27.5431 27.0164 27.5832C27.1132 27.6233 27.2168 27.6439 27.3215 27.6439C27.4263 27.6439 27.5299 27.6233 27.6267 27.5832C27.7234 27.5431 27.8112 27.4843 27.8852 27.4102L33.1235 22.1719C33.1976 22.0979 33.2564 22.01 33.2965 21.9133C33.3366 21.8166 33.3573 21.7129 33.3573 21.6082C33.3573 21.5035 33.3366 21.3998 33.2965 21.3031C33.2564 21.2064 33.1976 21.1185 33.1235 21.0445L33.0579 20.9789C32.9839 20.9048 32.896 20.846 32.7993 20.8059C32.7026 20.7658 32.5989 20.7451 32.4942 20.7451C32.3895 20.7451 32.2858 20.7658 32.1891 20.8059C32.0924 20.846 32.0045 20.9048 31.9305 20.9789L27.3204 25.5867L24.8688 23.1352Z" fill="#0871B1"/>
<path d="M53.5 18.5781H56.8984C58.3724 18.5781 59.4844 18.7917 60.2344 19.2188C60.9844 19.6458 61.3594 20.3828 61.3594 21.4297C61.3594 21.8672 61.2812 22.263 61.125 22.6172C60.974 22.9661 60.7526 23.2552 60.4609 23.4844C60.1693 23.7083 59.8099 23.8594 59.3828 23.9375V24.0156C59.8255 24.0938 60.2188 24.2318 60.5625 24.4297C60.9115 24.6276 61.1849 24.9115 61.3828 25.2812C61.5859 25.651 61.6875 26.1302 61.6875 26.7188C61.6875 27.4167 61.5208 28.0104 61.1875 28.5C60.8594 28.9896 60.388 29.362 59.7734 29.6172C59.1641 29.8724 58.4401 30 57.6016 30H53.5V18.5781ZM55.375 23.2891H57.1719C58.0208 23.2891 58.6094 23.151 58.9375 22.875C59.2656 22.599 59.4297 22.1953 59.4297 21.6641C59.4297 21.1224 59.2344 20.7318 58.8438 20.4922C58.4583 20.2526 57.8438 20.1328 57 20.1328H55.375V23.2891ZM55.375 24.8047V28.4297H57.3516C58.2266 28.4297 58.8411 28.2604 59.1953 27.9219C59.5495 27.5833 59.7266 27.125 59.7266 26.5469C59.7266 26.1927 59.6458 25.8854 59.4844 25.625C59.3281 25.3646 59.0703 25.1641 58.7109 25.0234C58.3516 24.8776 57.8672 24.8047 57.2578 24.8047H55.375ZM67.25 21.1875C68.3438 21.1875 69.1693 21.4297 69.7266 21.9141C70.2891 22.3984 70.5703 23.1536 70.5703 24.1797V30H69.2656L68.9141 28.7734H68.8516C68.6068 29.0859 68.3542 29.3438 68.0938 29.5469C67.8333 29.75 67.5312 29.901 67.1875 30C66.849 30.1042 66.4349 30.1562 65.9453 30.1562C65.4297 30.1562 64.9688 30.0625 64.5625 29.875C64.1562 29.6823 63.8359 29.3906 63.6016 29C63.3672 28.6094 63.25 28.1146 63.25 27.5156C63.25 26.625 63.5807 25.9557 64.2422 25.5078C64.9089 25.0599 65.9141 24.8125 67.2578 24.7656L68.7578 24.7109V24.2578C68.7578 23.6589 68.6172 23.2318 68.3359 22.9766C68.0599 22.7214 67.6693 22.5938 67.1641 22.5938C66.7318 22.5938 66.3125 22.6562 65.9062 22.7812C65.5 22.9062 65.1042 23.0599 64.7188 23.2422L64.125 21.9453C64.5469 21.7214 65.026 21.5391 65.5625 21.3984C66.1042 21.2578 66.6667 21.1875 67.25 21.1875ZM68.75 25.8672L67.6328 25.9062C66.7161 25.9375 66.0729 26.0938 65.7031 26.375C65.3333 26.6562 65.1484 27.0417 65.1484 27.5312C65.1484 27.9583 65.276 28.2708 65.5312 28.4688C65.7865 28.6615 66.1224 28.7578 66.5391 28.7578C67.1745 28.7578 67.7005 28.5781 68.1172 28.2188C68.5391 27.8542 68.75 27.3203 68.75 26.6172V25.8672ZM76.625 30.1562C75.8073 30.1562 75.099 29.9974 74.5 29.6797C73.901 29.362 73.4401 28.875 73.1172 28.2188C72.7943 27.5625 72.6328 26.7292 72.6328 25.7188C72.6328 24.6667 72.8099 23.8073 73.1641 23.1406C73.5182 22.474 74.0078 21.9818 74.6328 21.6641C75.263 21.3464 75.9844 21.1875 76.7969 21.1875C77.3125 21.1875 77.7786 21.2396 78.1953 21.3438C78.6172 21.4427 78.974 21.5651 79.2656 21.7109L78.7188 23.1797C78.401 23.0495 78.0755 22.9401 77.7422 22.8516C77.4089 22.763 77.0885 22.7188 76.7812 22.7188C76.276 22.7188 75.8542 22.8307 75.5156 23.0547C75.1823 23.2786 74.9323 23.612 74.7656 24.0547C74.6042 24.4974 74.5234 25.0469 74.5234 25.7031C74.5234 26.3385 74.6068 26.875 74.7734 27.3125C74.9401 27.7448 75.1875 28.0729 75.5156 28.2969C75.8438 28.5156 76.2474 28.625 76.7266 28.625C77.2005 28.625 77.625 28.5677 78 28.4531C78.375 28.3385 78.7292 28.1901 79.0625 28.0078V29.6016C78.7344 29.7891 78.3828 29.9271 78.0078 30.0156C77.6328 30.1094 77.1719 30.1562 76.625 30.1562ZM82.9297 17.8438V23.7188C82.9297 23.9844 82.9193 24.276 82.8984 24.5938C82.8776 24.9062 82.8568 25.2005 82.8359 25.4766H82.875C83.0104 25.2943 83.1719 25.0807 83.3594 24.8359C83.5521 24.5911 83.7344 24.3776 83.9062 24.1953L86.5469 21.3516H88.6562L85.1953 25.0703L88.8828 30H86.7266L83.9609 26.2031L82.9297 27.0859V30H81.0938V17.8438H82.9297ZM92.7344 33.8438C91.5625 33.8438 90.6641 33.6328 90.0391 33.2109C89.4141 32.7891 89.1016 32.1979 89.1016 31.4375C89.1016 30.9062 89.2682 30.4557 89.6016 30.0859C89.9349 29.7214 90.4115 29.4688 91.0312 29.3281C90.7969 29.224 90.5938 29.0625 90.4219 28.8438C90.2552 28.6198 90.1719 28.3724 90.1719 28.1016C90.1719 27.7786 90.263 27.5026 90.4453 27.2734C90.6276 27.0443 90.901 26.8229 91.2656 26.6094C90.8125 26.4167 90.4479 26.1042 90.1719 25.6719C89.901 25.2344 89.7656 24.7214 89.7656 24.1328C89.7656 23.5078 89.8984 22.9766 90.1641 22.5391C90.4297 22.0964 90.8177 21.7604 91.3281 21.5312C91.8385 21.2969 92.4557 21.1797 93.1797 21.1797C93.3359 21.1797 93.5052 21.1901 93.6875 21.2109C93.875 21.2266 94.0469 21.2474 94.2031 21.2734C94.3646 21.2943 94.487 21.3177 94.5703 21.3438H97.5625V22.3672L96.0938 22.6406C96.2344 22.8385 96.3464 23.0651 96.4297 23.3203C96.513 23.5703 96.5547 23.8438 96.5547 24.1406C96.5547 25.0365 96.2448 25.7422 95.625 26.2578C95.0104 26.7682 94.1615 27.0234 93.0781 27.0234C92.8177 27.013 92.5651 26.9922 92.3203 26.9609C92.1328 27.0755 91.9896 27.2031 91.8906 27.3438C91.7917 27.4792 91.7422 27.6328 91.7422 27.8047C91.7422 27.9453 91.7917 28.0599 91.8906 28.1484C91.9896 28.2318 92.1354 28.2943 92.3281 28.3359C92.526 28.3776 92.7656 28.3984 93.0469 28.3984H94.5391C95.487 28.3984 96.2109 28.599 96.7109 29C97.2109 29.401 97.4609 29.9896 97.4609 30.7656C97.4609 31.75 97.0547 32.5078 96.2422 33.0391C95.4297 33.5755 94.2604 33.8438 92.7344 33.8438ZM92.8047 32.5547C93.4453 32.5547 93.9844 32.4922 94.4219 32.3672C94.8594 32.2422 95.1901 32.0625 95.4141 31.8281C95.638 31.599 95.75 31.3255 95.75 31.0078C95.75 30.7266 95.6797 30.5104 95.5391 30.3594C95.3984 30.2083 95.1875 30.1042 94.9062 30.0469C94.625 29.9896 94.276 29.9609 93.8594 29.9609H92.5C92.1615 29.9609 91.862 30.013 91.6016 30.1172C91.3411 30.2266 91.138 30.3828 90.9922 30.5859C90.8516 30.7891 90.7812 31.0339 90.7812 31.3203C90.7812 31.7161 90.9557 32.0208 91.3047 32.2344C91.6589 32.4479 92.1589 32.5547 92.8047 32.5547ZM93.1641 25.8203C93.7005 25.8203 94.099 25.6745 94.3594 25.3828C94.6198 25.0859 94.75 24.6693 94.75 24.1328C94.75 23.5495 94.6146 23.112 94.3438 22.8203C94.0781 22.5286 93.6823 22.3828 93.1562 22.3828C92.6406 22.3828 92.2474 22.5312 91.9766 22.8281C91.7109 23.125 91.5781 23.5651 91.5781 24.1484C91.5781 24.6745 91.7109 25.0859 91.9766 25.3828C92.2474 25.6745 92.6432 25.8203 93.1641 25.8203ZM103.523 21.1875C103.669 21.1875 103.828 21.1953 104 21.2109C104.172 21.2266 104.32 21.2474 104.445 21.2734L104.273 22.9922C104.164 22.9609 104.029 22.9375 103.867 22.9219C103.711 22.9062 103.57 22.8984 103.445 22.8984C103.117 22.8984 102.805 22.9531 102.508 23.0625C102.211 23.1667 101.948 23.3281 101.719 23.5469C101.49 23.7604 101.31 24.0286 101.18 24.3516C101.049 24.6745 100.984 25.0495 100.984 25.4766V30H99.1406V21.3516H100.578L100.828 22.875H100.914C101.086 22.5677 101.299 22.2865 101.555 22.0312C101.81 21.776 102.102 21.5729 102.43 21.4219C102.763 21.2656 103.128 21.1875 103.523 21.1875ZM113.703 25.6562C113.703 26.375 113.609 27.013 113.422 27.5703C113.234 28.1276 112.961 28.599 112.602 28.9844C112.242 29.3646 111.81 29.6562 111.305 29.8594C110.799 30.0573 110.229 30.1562 109.594 30.1562C109 30.1562 108.456 30.0573 107.961 29.8594C107.466 29.6562 107.036 29.3646 106.672 28.9844C106.312 28.599 106.034 28.1276 105.836 27.5703C105.638 27.013 105.539 26.375 105.539 25.6562C105.539 24.7031 105.703 23.8958 106.031 23.2344C106.365 22.5677 106.839 22.0599 107.453 21.7109C108.068 21.362 108.799 21.1875 109.648 21.1875C110.445 21.1875 111.148 21.362 111.758 21.7109C112.367 22.0599 112.844 22.5677 113.188 23.2344C113.531 23.901 113.703 24.7083 113.703 25.6562ZM107.43 25.6562C107.43 26.2865 107.505 26.8255 107.656 27.2734C107.812 27.7214 108.052 28.0651 108.375 28.3047C108.698 28.5391 109.115 28.6562 109.625 28.6562C110.135 28.6562 110.552 28.5391 110.875 28.3047C111.198 28.0651 111.435 27.7214 111.586 27.2734C111.737 26.8255 111.812 26.2865 111.812 25.6562C111.812 25.026 111.737 24.4922 111.586 24.0547C111.435 23.612 111.198 23.276 110.875 23.0469C110.552 22.8125 110.133 22.6953 109.617 22.6953C108.857 22.6953 108.302 22.9505 107.953 23.4609C107.604 23.9714 107.43 24.7031 107.43 25.6562ZM123.352 21.3516V30H121.906L121.656 28.8359H121.555C121.372 29.1328 121.141 29.3802 120.859 29.5781C120.578 29.7708 120.266 29.9141 119.922 30.0078C119.578 30.1068 119.216 30.1562 118.836 30.1562C118.185 30.1562 117.628 30.0469 117.164 29.8281C116.706 29.6042 116.354 29.2604 116.109 28.7969C115.865 28.3333 115.742 27.7344 115.742 27V21.3516H117.586V26.6562C117.586 27.3281 117.721 27.8307 117.992 28.1641C118.268 28.4974 118.695 28.6641 119.273 28.6641C119.831 28.6641 120.273 28.5495 120.602 28.3203C120.93 28.0911 121.161 27.7526 121.297 27.3047C121.438 26.8568 121.508 26.3073 121.508 25.6562V21.3516H123.352ZM130.492 21.1875C131.466 21.1875 132.224 21.4401 132.766 21.9453C133.312 22.4453 133.586 23.25 133.586 24.3594V30H131.75V24.7031C131.75 24.0312 131.612 23.5286 131.336 23.1953C131.06 22.8568 130.633 22.6875 130.055 22.6875C129.216 22.6875 128.633 22.9453 128.305 23.4609C127.982 23.9766 127.82 24.724 127.82 25.7031V30H125.984V21.3516H127.414L127.672 22.5234H127.773C127.961 22.2214 128.193 21.974 128.469 21.7812C128.75 21.5833 129.062 21.4349 129.406 21.3359C129.755 21.237 130.117 21.1875 130.492 21.1875ZM139.062 30.1562C138.031 30.1562 137.203 29.7812 136.578 29.0312C135.958 28.276 135.648 27.1641 135.648 25.6953C135.648 24.2109 135.964 23.0885 136.594 22.3281C137.229 21.5677 138.065 21.1875 139.102 21.1875C139.539 21.1875 139.922 21.2474 140.25 21.3672C140.578 21.4818 140.859 21.638 141.094 21.8359C141.333 22.0339 141.536 22.2552 141.703 22.5H141.789C141.763 22.3385 141.732 22.1068 141.695 21.8047C141.664 21.4974 141.648 21.2135 141.648 20.9531V17.8438H143.492V30H142.055L141.727 28.8203H141.648C141.492 29.0703 141.294 29.2969 141.055 29.5C140.82 29.6979 140.539 29.8568 140.211 29.9766C139.888 30.0964 139.505 30.1562 139.062 30.1562ZM139.578 28.6641C140.365 28.6641 140.919 28.4375 141.242 27.9844C141.565 27.5312 141.732 26.8516 141.742 25.9453V25.7031C141.742 24.7344 141.586 23.9922 141.273 23.4766C140.961 22.9557 140.391 22.6953 139.562 22.6953C138.901 22.6953 138.396 22.9635 138.047 23.5C137.703 24.0312 137.531 24.7734 137.531 25.7266C137.531 26.6797 137.703 27.4089 138.047 27.9141C138.396 28.4141 138.906 28.6641 139.578 28.6641ZM153.766 30.1562C152.948 30.1562 152.24 29.9974 151.641 29.6797C151.042 29.362 150.581 28.875 150.258 28.2188C149.935 27.5625 149.773 26.7292 149.773 25.7188C149.773 24.6667 149.951 23.8073 150.305 23.1406C150.659 22.474 151.148 21.9818 151.773 21.6641C152.404 21.3464 153.125 21.1875 153.938 21.1875C154.453 21.1875 154.919 21.2396 155.336 21.3438C155.758 21.4427 156.115 21.5651 156.406 21.7109L155.859 23.1797C155.542 23.0495 155.216 22.9401 154.883 22.8516C154.549 22.763 154.229 22.7188 153.922 22.7188C153.417 22.7188 152.995 22.8307 152.656 23.0547C152.323 23.2786 152.073 23.612 151.906 24.0547C151.745 24.4974 151.664 25.0469 151.664 25.7031C151.664 26.3385 151.747 26.875 151.914 27.3125C152.081 27.7448 152.328 28.0729 152.656 28.2969C152.984 28.5156 153.388 28.625 153.867 28.625C154.341 28.625 154.766 28.5677 155.141 28.4531C155.516 28.3385 155.87 28.1901 156.203 28.0078V29.6016C155.875 29.7891 155.523 29.9271 155.148 30.0156C154.773 30.1094 154.312 30.1562 153.766 30.1562ZM160.07 17.8438V20.8984C160.07 21.2161 160.06 21.526 160.039 21.8281C160.023 22.1302 160.005 22.3646 159.984 22.5312H160.086C160.268 22.2292 160.492 21.9818 160.758 21.7891C161.023 21.5911 161.32 21.4427 161.648 21.3438C161.982 21.2448 162.336 21.1953 162.711 21.1953C163.372 21.1953 163.935 21.3073 164.398 21.5312C164.862 21.75 165.216 22.0911 165.461 22.5547C165.711 23.0182 165.836 23.6198 165.836 24.3594V30H164V24.7031C164 24.0312 163.862 23.5286 163.586 23.1953C163.31 22.8568 162.883 22.6875 162.305 22.6875C161.747 22.6875 161.305 22.8047 160.977 23.0391C160.654 23.2682 160.422 23.6094 160.281 24.0625C160.141 24.5104 160.07 25.0573 160.07 25.7031V30H158.234V17.8438H160.07ZM171.852 21.1875C172.622 21.1875 173.284 21.3464 173.836 21.6641C174.388 21.9818 174.812 22.4323 175.109 23.0156C175.406 23.599 175.555 24.2969 175.555 25.1094V26.0938H169.781C169.802 26.9323 170.026 27.5781 170.453 28.0312C170.885 28.4844 171.49 28.7109 172.266 28.7109C172.818 28.7109 173.312 28.6589 173.75 28.5547C174.193 28.4453 174.648 28.2865 175.117 28.0781V29.5703C174.685 29.7734 174.245 29.9219 173.797 30.0156C173.349 30.1094 172.812 30.1562 172.188 30.1562C171.339 30.1562 170.591 29.9922 169.945 29.6641C169.305 29.3307 168.802 28.8359 168.438 28.1797C168.078 27.5234 167.898 26.7083 167.898 25.7344C167.898 24.7656 168.062 23.9427 168.391 23.2656C168.719 22.5885 169.18 22.0729 169.773 21.7188C170.367 21.3646 171.06 21.1875 171.852 21.1875ZM171.852 22.5703C171.273 22.5703 170.805 22.7578 170.445 23.1328C170.091 23.5078 169.883 24.0573 169.82 24.7812H173.758C173.753 24.349 173.68 23.9661 173.539 23.6328C173.404 23.2995 173.195 23.0391 172.914 22.8516C172.638 22.6641 172.284 22.5703 171.852 22.5703ZM181.109 30.1562C180.292 30.1562 179.583 29.9974 178.984 29.6797C178.385 29.362 177.924 28.875 177.602 28.2188C177.279 27.5625 177.117 26.7292 177.117 25.7188C177.117 24.6667 177.294 23.8073 177.648 23.1406C178.003 22.474 178.492 21.9818 179.117 21.6641C179.747 21.3464 180.469 21.1875 181.281 21.1875C181.797 21.1875 182.263 21.2396 182.68 21.3438C183.102 21.4427 183.458 21.5651 183.75 21.7109L183.203 23.1797C182.885 23.0495 182.56 22.9401 182.227 22.8516C181.893 22.763 181.573 22.7188 181.266 22.7188C180.76 22.7188 180.339 22.8307 180 23.0547C179.667 23.2786 179.417 23.612 179.25 24.0547C179.089 24.4974 179.008 25.0469 179.008 25.7031C179.008 26.3385 179.091 26.875 179.258 27.3125C179.424 27.7448 179.672 28.0729 180 28.2969C180.328 28.5156 180.732 28.625 181.211 28.625C181.685 28.625 182.109 28.5677 182.484 28.4531C182.859 28.3385 183.214 28.1901 183.547 28.0078V29.6016C183.219 29.7891 182.867 29.9271 182.492 30.0156C182.117 30.1094 181.656 30.1562 181.109 30.1562ZM187.414 17.8438V23.7188C187.414 23.9844 187.404 24.276 187.383 24.5938C187.362 24.9062 187.341 25.2005 187.32 25.4766H187.359C187.495 25.2943 187.656 25.0807 187.844 24.8359C188.036 24.5911 188.219 24.3776 188.391 24.1953L191.031 21.3516H193.141L189.68 25.0703L193.367 30H191.211L188.445 26.2031L187.414 27.0859V30H185.578V17.8438H187.414ZM198.195 21.1875C198.966 21.1875 199.628 21.3464 200.18 21.6641C200.732 21.9818 201.156 22.4323 201.453 23.0156C201.75 23.599 201.898 24.2969 201.898 25.1094V26.0938H196.125C196.146 26.9323 196.37 27.5781 196.797 28.0312C197.229 28.4844 197.833 28.7109 198.609 28.7109C199.161 28.7109 199.656 28.6589 200.094 28.5547C200.536 28.4453 200.992 28.2865 201.461 28.0781V29.5703C201.029 29.7734 200.589 29.9219 200.141 30.0156C199.693 30.1094 199.156 30.1562 198.531 30.1562C197.682 30.1562 196.935 29.9922 196.289 29.6641C195.648 29.3307 195.146 28.8359 194.781 28.1797C194.422 27.5234 194.242 26.7083 194.242 25.7344C194.242 24.7656 194.406 23.9427 194.734 23.2656C195.062 22.5885 195.523 22.0729 196.117 21.7188C196.711 21.3646 197.404 21.1875 198.195 21.1875ZM198.195 22.5703C197.617 22.5703 197.148 22.7578 196.789 23.1328C196.435 23.5078 196.227 24.0573 196.164 24.7812H200.102C200.096 24.349 200.023 23.9661 199.883 23.6328C199.747 23.2995 199.539 23.0391 199.258 22.8516C198.982 22.6641 198.628 22.5703 198.195 22.5703ZM206.875 30.1562C205.844 30.1562 205.016 29.7812 204.391 29.0312C203.771 28.276 203.461 27.1641 203.461 25.6953C203.461 24.2109 203.776 23.0885 204.406 22.3281C205.042 21.5677 205.878 21.1875 206.914 21.1875C207.352 21.1875 207.734 21.2474 208.062 21.3672C208.391 21.4818 208.672 21.638 208.906 21.8359C209.146 22.0339 209.349 22.2552 209.516 22.5H209.602C209.576 22.3385 209.544 22.1068 209.508 21.8047C209.477 21.4974 209.461 21.2135 209.461 20.9531V17.8438H211.305V30H209.867L209.539 28.8203H209.461C209.305 29.0703 209.107 29.2969 208.867 29.5C208.633 29.6979 208.352 29.8568 208.023 29.9766C207.701 30.0964 207.318 30.1562 206.875 30.1562ZM207.391 28.6641C208.177 28.6641 208.732 28.4375 209.055 27.9844C209.378 27.5312 209.544 26.8516 209.555 25.9453V25.7031C209.555 24.7344 209.398 23.9922 209.086 23.4766C208.773 22.9557 208.203 22.6953 207.375 22.6953C206.714 22.6953 206.208 22.9635 205.859 23.5C205.516 24.0312 205.344 24.7734 205.344 25.7266C205.344 26.6797 205.516 27.4089 205.859 27.9141C206.208 28.4141 206.719 28.6641 207.391 28.6641Z" fill="#0871B1"/>
</g>
<defs>
<filter id="filter0_d_19_4304" x="0" y="0" width="229" height="56" filterUnits="userSpaceOnUse" color-interpolation-filters="sRGB">
<feFlood flood-opacity="0" result="BackgroundImageFix"/>
<feColorMatrix in="SourceAlpha" type="matrix" values="0 0 0 0 0 0 0 0 0 0 0 0 0 0 0 0 0 0 127 0" result="hardAlpha"/>
<feOffset dy="4"/>
<feGaussianBlur stdDeviation="2"/>
<feComposite in2="hardAlpha" operator="out"/>
<feColorMatrix type="matrix" values="0 0 0 0 0.120436 0 0 0 0 0.120436 0 0 0 0 0.120436 0 0 0 0.1 0"/>
<feBlend mode="normal" in2="BackgroundImageFix" result="effect1_dropShadow_19_4304"/>
<feBlend mode="normal" in="SourceGraphic" in2="effect1_dropShadow_19_4304" result="shape"/>
</filter>
</defs>
</svg>
