<svg width="226" height="56" viewBox="0 0 226 56" fill="none" xmlns="http://www.w3.org/2000/svg">
<g filter="url(#filter0_d_19_4315)">
<rect x="4" width="218" height="48" rx="5" fill="#FBEFFF" fill-opacity="0.52" shape-rendering="crispEdges"/>
<path d="M21.4 20.1C21.4 19.3839 21.6845 18.6971 22.1909 18.1908C22.6972 17.6844 23.384 17.4 24.1 17.4C24.8161 17.4 25.5029 17.6844 26.0092 18.1908C26.5156 18.6971 26.8 19.3839 26.8 20.1C26.8 20.816 26.5156 21.5028 26.0092 22.0091C25.5029 22.5155 24.8161 22.8 24.1 22.8C23.384 22.8 22.6972 22.5155 22.1909 22.0091C21.6845 21.5028 21.4 20.816 21.4 20.1ZM24.1 16.2C23.0657 16.2 22.0737 16.6108 21.3423 17.3422C20.6109 18.0736 20.2 19.0656 20.2 20.1C20.2 21.1343 20.6109 22.1263 21.3423 22.8577C22.0737 23.5891 23.0657 24 24.1 24C25.1344 24 26.1264 23.5891 26.8578 22.8577C27.5892 22.1263 28 21.1343 28 20.1C28 19.0656 27.5892 18.0736 26.8578 17.3422C26.1264 16.6108 25.1344 16.2 24.1 16.2ZM30.9244 30.174C31.57 30.438 32.3824 30.6 33.4 30.6C35.6572 30.6 36.9052 29.7984 37.5628 28.8792C37.9067 28.3972 38.1219 27.8355 38.188 27.2472C38.1939 27.1925 38.1979 27.1377 38.2001 27.0828V27C38.2001 26.7636 38.1535 26.5295 38.063 26.3111C37.9726 26.0927 37.84 25.8943 37.6728 25.7272C37.5057 25.56 37.3073 25.4274 37.0889 25.337C36.8705 25.2465 36.6364 25.2 36.4 25.2H30.844C31.132 25.548 31.3481 25.9548 31.474 26.4H36.4C36.5592 26.4 36.7118 26.4632 36.8243 26.5757C36.9368 26.6882 37 26.8408 37 27V27.0648L36.9941 27.1248C36.949 27.5055 36.8087 27.8687 36.5861 28.1808C36.1937 28.7316 35.3417 29.4 33.4 29.4C32.5216 29.4 31.8664 29.2632 31.3756 29.0628C31.2772 29.3988 31.1344 29.778 30.9244 30.174ZM17.8 27.6C17.8 26.9634 18.0529 26.353 18.503 25.9029C18.9531 25.4528 19.5635 25.2 20.2 25.2H28C28.6366 25.2 29.247 25.4528 29.6971 25.9029C30.1472 26.353 30.4 26.9634 30.4 27.6V27.7008L30.3976 27.7488L30.3856 27.9108C30.3006 28.6884 30.0244 29.433 29.5816 30.078C28.7404 31.296 27.1156 32.4 24.1 32.4C21.0844 32.4 19.4596 31.296 18.6184 30.0792C18.1755 29.4338 17.8993 28.6888 17.8144 27.9108C17.8076 27.8409 17.8028 27.7709 17.8 27.7008V27.6ZM19 27.672V27.6936L19.0084 27.7932C19.0736 28.3684 19.2788 28.9189 19.606 29.3964C20.1904 30.2412 21.4156 31.2 24.1 31.2C26.7844 31.2 28.0096 30.2412 28.594 29.3964C28.9213 28.9189 29.1265 28.3684 29.1916 27.7932C29.1964 27.7476 29.1988 27.7144 29.1988 27.6936L29.2 27.6732V27.6C29.2 27.2817 29.0736 26.9765 28.8486 26.7514C28.6235 26.5264 28.3183 26.4 28 26.4H20.2C19.8818 26.4 19.5766 26.5264 19.3515 26.7514C19.1265 26.9765 19 27.2817 19 27.6V27.672ZM31.6 21C31.6 20.5226 31.7897 20.0647 32.1273 19.7272C32.4648 19.3896 32.9227 19.2 33.4 19.2C33.8774 19.2 34.3353 19.3896 34.6728 19.7272C35.0104 20.0647 35.2001 20.5226 35.2001 21C35.2001 21.4773 35.0104 21.9352 34.6728 22.2727C34.3353 22.6103 33.8774 22.8 33.4 22.8C32.9227 22.8 32.4648 22.6103 32.1273 22.2727C31.7897 21.9352 31.6 21.4773 31.6 21ZM33.4 18C32.6044 18 31.8413 18.316 31.2787 18.8786C30.7161 19.4412 30.4 20.2043 30.4 21C30.4 21.7956 30.7161 22.5587 31.2787 23.1213C31.8413 23.6839 32.6044 24 33.4 24C34.1957 24 34.9588 23.6839 35.5214 23.1213C36.084 22.5587 36.4 21.7956 36.4 21C36.4 20.2043 36.084 19.4412 35.5214 18.8786C34.9588 18.316 34.1957 18 33.4 18Z" fill="#670316"/>
<path d="M58.1172 30H56.2734V22.6484C56.2734 22.4036 56.276 22.1589 56.2812 21.9141C56.2865 21.6693 56.2917 21.4297 56.2969 21.1953C56.3073 20.9609 56.3203 20.737 56.3359 20.5234C56.2266 20.6432 56.0911 20.7734 55.9297 20.9141C55.7734 21.0547 55.6068 21.2005 55.4297 21.3516L54.1172 22.3984L53.1953 21.2344L56.5859 18.5781H58.1172V30ZM69.6094 24.2812C69.6094 25.2031 69.5365 26.0286 69.3906 26.7578C69.25 27.4818 69.026 28.0964 68.7188 28.6016C68.4115 29.1068 68.0104 29.4922 67.5156 29.7578C67.0208 30.0234 66.4219 30.1562 65.7188 30.1562C64.8385 30.1562 64.112 29.9245 63.5391 29.4609C62.9661 28.9922 62.5417 28.3203 62.2656 27.4453C61.9896 26.5651 61.8516 25.5104 61.8516 24.2812C61.8516 23.0521 61.9766 22 62.2266 21.125C62.4818 20.2448 62.8932 19.5703 63.4609 19.1016C64.0286 18.6328 64.7812 18.3984 65.7188 18.3984C66.6042 18.3984 67.3333 18.6328 67.9062 19.1016C68.4844 19.5651 68.9115 20.237 69.1875 21.1172C69.4688 21.9922 69.6094 23.0469 69.6094 24.2812ZM63.7031 24.2812C63.7031 25.2448 63.7656 26.0495 63.8906 26.6953C64.0208 27.3411 64.2344 27.8255 64.5312 28.1484C64.8281 28.4661 65.224 28.625 65.7188 28.625C66.2135 28.625 66.6094 28.4661 66.9062 28.1484C67.2031 27.8307 67.4167 27.349 67.5469 26.7031C67.6823 26.0573 67.75 25.25 67.75 24.2812C67.75 23.3229 67.6849 22.5208 67.5547 21.875C67.4245 21.2292 67.2109 20.7448 66.9141 20.4219C66.6172 20.0938 66.2188 19.9297 65.7188 19.9297C65.2188 19.9297 64.8203 20.0938 64.5234 20.4219C64.2318 20.7448 64.0208 21.2292 63.8906 21.875C63.7656 22.5208 63.7031 23.3229 63.7031 24.2812ZM73.4609 17.8438V23.7188C73.4609 23.9844 73.4505 24.276 73.4297 24.5938C73.4089 24.9062 73.388 25.2005 73.3672 25.4766H73.4062C73.5417 25.2943 73.7031 25.0807 73.8906 24.8359C74.0833 24.5911 74.2656 24.3776 74.4375 24.1953L77.0781 21.3516H79.1875L75.7266 25.0703L79.4141 30H77.2578L74.4922 26.2031L73.4609 27.0859V30H71.625V17.8438H73.4609ZM84.7422 23.6641H87.8672V25.0547H84.7422V28.2109H83.3516V25.0547H80.2344V23.6641H83.3516V20.4766H84.7422V23.6641ZM98.4297 22.75H96.3281V30H94.4922V22.75H93.0781V21.8672L94.4922 21.3281V20.7266C94.4922 19.9922 94.6068 19.4089 94.8359 18.9766C95.0703 18.5443 95.4036 18.2344 95.8359 18.0469C96.2734 17.8542 96.7943 17.7578 97.3984 17.7578C97.7943 17.7578 98.1562 17.7917 98.4844 17.8594C98.8125 17.9219 99.0885 17.9948 99.3125 18.0781L98.8359 19.4688C98.6589 19.4115 98.4609 19.3594 98.2422 19.3125C98.0234 19.2604 97.7891 19.2344 97.5391 19.2344C97.1224 19.2344 96.8151 19.3646 96.6172 19.625C96.4245 19.8854 96.3281 20.2656 96.3281 20.7656V21.3516H98.4297V22.75ZM103.297 21.1875C104.391 21.1875 105.216 21.4297 105.773 21.9141C106.336 22.3984 106.617 23.1536 106.617 24.1797V30H105.312L104.961 28.7734H104.898C104.654 29.0859 104.401 29.3438 104.141 29.5469C103.88 29.75 103.578 29.901 103.234 30C102.896 30.1042 102.482 30.1562 101.992 30.1562C101.477 30.1562 101.016 30.0625 100.609 29.875C100.203 29.6823 99.8828 29.3906 99.6484 29C99.4141 28.6094 99.2969 28.1146 99.2969 27.5156C99.2969 26.625 99.6276 25.9557 100.289 25.5078C100.956 25.0599 101.961 24.8125 103.305 24.7656L104.805 24.7109V24.2578C104.805 23.6589 104.664 23.2318 104.383 22.9766C104.107 22.7214 103.716 22.5938 103.211 22.5938C102.779 22.5938 102.359 22.6562 101.953 22.7812C101.547 22.9062 101.151 23.0599 100.766 23.2422L100.172 21.9453C100.594 21.7214 101.073 21.5391 101.609 21.3984C102.151 21.2578 102.714 21.1875 103.297 21.1875ZM104.797 25.8672L103.68 25.9062C102.763 25.9375 102.12 26.0938 101.75 26.375C101.38 26.6562 101.195 27.0417 101.195 27.5312C101.195 27.9583 101.323 28.2708 101.578 28.4688C101.833 28.6615 102.169 28.7578 102.586 28.7578C103.221 28.7578 103.747 28.5781 104.164 28.2188C104.586 27.8542 104.797 27.3203 104.797 26.6172V25.8672ZM118.961 21.1875C119.93 21.1875 120.659 21.4375 121.148 21.9375C121.643 22.4375 121.891 23.2396 121.891 24.3438V30H120.055V24.6719C120.055 24.0156 119.927 23.5208 119.672 23.1875C119.417 22.8542 119.029 22.6875 118.508 22.6875C117.779 22.6875 117.253 22.9219 116.93 23.3906C116.612 23.8542 116.453 24.5286 116.453 25.4141V30H114.617V24.6719C114.617 24.2344 114.56 23.8698 114.445 23.5781C114.336 23.2812 114.167 23.0599 113.938 22.9141C113.708 22.763 113.419 22.6875 113.07 22.6875C112.565 22.6875 112.161 22.8021 111.859 23.0312C111.562 23.2604 111.349 23.599 111.219 24.0469C111.089 24.4896 111.023 25.0339 111.023 25.6797V30H109.188V21.3516H110.617L110.875 22.5156H110.977C111.154 22.2135 111.372 21.9661 111.633 21.7734C111.898 21.5755 112.193 21.4297 112.516 21.3359C112.839 21.237 113.174 21.1875 113.523 21.1875C114.169 21.1875 114.714 21.3021 115.156 21.5312C115.599 21.7552 115.93 22.099 116.148 22.5625H116.289C116.56 22.0938 116.938 21.7474 117.422 21.5234C117.906 21.2995 118.419 21.1875 118.961 21.1875ZM126.289 21.3516V30H124.453V21.3516H126.289ZM125.383 18.0391C125.664 18.0391 125.906 18.1146 126.109 18.2656C126.318 18.4167 126.422 18.6771 126.422 19.0469C126.422 19.4115 126.318 19.6719 126.109 19.8281C125.906 19.9792 125.664 20.0547 125.383 20.0547C125.091 20.0547 124.844 19.9792 124.641 19.8281C124.443 19.6719 124.344 19.4115 124.344 19.0469C124.344 18.6771 124.443 18.4167 124.641 18.2656C124.844 18.1146 125.091 18.0391 125.383 18.0391ZM130.766 30H128.922V17.8438H130.766V30ZM135.227 21.3516V30H133.391V21.3516H135.227ZM134.32 18.0391C134.602 18.0391 134.844 18.1146 135.047 18.2656C135.255 18.4167 135.359 18.6771 135.359 19.0469C135.359 19.4115 135.255 19.6719 135.047 19.8281C134.844 19.9792 134.602 20.0547 134.32 20.0547C134.029 20.0547 133.781 19.9792 133.578 19.8281C133.38 19.6719 133.281 19.4115 133.281 19.0469C133.281 18.6771 133.38 18.4167 133.578 18.2656C133.781 18.1146 134.029 18.0391 134.32 18.0391ZM141.305 21.1875C142.076 21.1875 142.737 21.3464 143.289 21.6641C143.841 21.9818 144.266 22.4323 144.562 23.0156C144.859 23.599 145.008 24.2969 145.008 25.1094V26.0938H139.234C139.255 26.9323 139.479 27.5781 139.906 28.0312C140.339 28.4844 140.943 28.7109 141.719 28.7109C142.271 28.7109 142.766 28.6589 143.203 28.5547C143.646 28.4453 144.102 28.2865 144.57 28.0781V29.5703C144.138 29.7734 143.698 29.9219 143.25 30.0156C142.802 30.1094 142.266 30.1562 141.641 30.1562C140.792 30.1562 140.044 29.9922 139.398 29.6641C138.758 29.3307 138.255 28.8359 137.891 28.1797C137.531 27.5234 137.352 26.7083 137.352 25.7344C137.352 24.7656 137.516 23.9427 137.844 23.2656C138.172 22.5885 138.633 22.0729 139.227 21.7188C139.82 21.3646 140.513 21.1875 141.305 21.1875ZM141.305 22.5703C140.727 22.5703 140.258 22.7578 139.898 23.1328C139.544 23.5078 139.336 24.0573 139.273 24.7812H143.211C143.206 24.349 143.133 23.9661 142.992 23.6328C142.857 23.2995 142.648 23.0391 142.367 22.8516C142.091 22.6641 141.737 22.5703 141.305 22.5703ZM152.891 27.5312C152.891 28.099 152.753 28.5781 152.477 28.9688C152.201 29.3594 151.797 29.6562 151.266 29.8594C150.74 30.0573 150.094 30.1562 149.328 30.1562C148.724 30.1562 148.203 30.112 147.766 30.0234C147.333 29.9401 146.924 29.8099 146.539 29.6328V28.0469C146.951 28.2396 147.411 28.4062 147.922 28.5469C148.438 28.6875 148.924 28.7578 149.383 28.7578C149.987 28.7578 150.422 28.6641 150.688 28.4766C150.953 28.2839 151.086 28.0286 151.086 27.7109C151.086 27.5234 151.031 27.3568 150.922 27.2109C150.818 27.0599 150.62 26.9062 150.328 26.75C150.042 26.5885 149.62 26.3958 149.062 26.1719C148.516 25.9531 148.055 25.7344 147.68 25.5156C147.305 25.2969 147.021 25.0339 146.828 24.7266C146.635 24.4141 146.539 24.0156 146.539 23.5312C146.539 22.7656 146.841 22.1849 147.445 21.7891C148.055 21.388 148.859 21.1875 149.859 21.1875C150.391 21.1875 150.891 21.2422 151.359 21.3516C151.833 21.4557 152.297 21.6094 152.75 21.8125L152.172 23.1953C151.781 23.0234 151.388 22.8828 150.992 22.7734C150.602 22.6589 150.203 22.6016 149.797 22.6016C149.323 22.6016 148.961 22.6745 148.711 22.8203C148.466 22.9661 148.344 23.1745 148.344 23.4453C148.344 23.6484 148.404 23.8203 148.523 23.9609C148.643 24.1016 148.849 24.2422 149.141 24.3828C149.438 24.5234 149.849 24.6979 150.375 24.9062C150.891 25.1042 151.336 25.3125 151.711 25.5312C152.091 25.7448 152.383 26.0078 152.586 26.3203C152.789 26.6328 152.891 27.0365 152.891 27.5312ZM164.844 27.5312C164.844 28.099 164.706 28.5781 164.43 28.9688C164.154 29.3594 163.75 29.6562 163.219 29.8594C162.693 30.0573 162.047 30.1562 161.281 30.1562C160.677 30.1562 160.156 30.112 159.719 30.0234C159.286 29.9401 158.878 29.8099 158.492 29.6328V28.0469C158.904 28.2396 159.365 28.4062 159.875 28.5469C160.391 28.6875 160.878 28.7578 161.336 28.7578C161.94 28.7578 162.375 28.6641 162.641 28.4766C162.906 28.2839 163.039 28.0286 163.039 27.7109C163.039 27.5234 162.984 27.3568 162.875 27.2109C162.771 27.0599 162.573 26.9062 162.281 26.75C161.995 26.5885 161.573 26.3958 161.016 26.1719C160.469 25.9531 160.008 25.7344 159.633 25.5156C159.258 25.2969 158.974 25.0339 158.781 24.7266C158.589 24.4141 158.492 24.0156 158.492 23.5312C158.492 22.7656 158.794 22.1849 159.398 21.7891C160.008 21.388 160.812 21.1875 161.812 21.1875C162.344 21.1875 162.844 21.2422 163.312 21.3516C163.786 21.4557 164.25 21.6094 164.703 21.8125L164.125 23.1953C163.734 23.0234 163.341 22.8828 162.945 22.7734C162.555 22.6589 162.156 22.6016 161.75 22.6016C161.276 22.6016 160.914 22.6745 160.664 22.8203C160.419 22.9661 160.297 23.1745 160.297 23.4453C160.297 23.6484 160.357 23.8203 160.477 23.9609C160.596 24.1016 160.802 24.2422 161.094 24.3828C161.391 24.5234 161.802 24.6979 162.328 24.9062C162.844 25.1042 163.289 25.3125 163.664 25.5312C164.044 25.7448 164.336 26.0078 164.539 26.3203C164.742 26.6328 164.844 27.0365 164.844 27.5312ZM170.273 21.1875C171.044 21.1875 171.706 21.3464 172.258 21.6641C172.81 21.9818 173.234 22.4323 173.531 23.0156C173.828 23.599 173.977 24.2969 173.977 25.1094V26.0938H168.203C168.224 26.9323 168.448 27.5781 168.875 28.0312C169.307 28.4844 169.911 28.7109 170.688 28.7109C171.24 28.7109 171.734 28.6589 172.172 28.5547C172.615 28.4453 173.07 28.2865 173.539 28.0781V29.5703C173.107 29.7734 172.667 29.9219 172.219 30.0156C171.771 30.1094 171.234 30.1562 170.609 30.1562C169.76 30.1562 169.013 29.9922 168.367 29.6641C167.727 29.3307 167.224 28.8359 166.859 28.1797C166.5 27.5234 166.32 26.7083 166.32 25.7344C166.32 24.7656 166.484 23.9427 166.812 23.2656C167.141 22.5885 167.602 22.0729 168.195 21.7188C168.789 21.3646 169.482 21.1875 170.273 21.1875ZM170.273 22.5703C169.695 22.5703 169.227 22.7578 168.867 23.1328C168.513 23.5078 168.305 24.0573 168.242 24.7812H172.18C172.174 24.349 172.102 23.9661 171.961 23.6328C171.826 23.2995 171.617 23.0391 171.336 22.8516C171.06 22.6641 170.706 22.5703 170.273 22.5703ZM180.43 21.1875C180.576 21.1875 180.734 21.1953 180.906 21.2109C181.078 21.2266 181.227 21.2474 181.352 21.2734L181.18 22.9922C181.07 22.9609 180.935 22.9375 180.773 22.9219C180.617 22.9062 180.477 22.8984 180.352 22.8984C180.023 22.8984 179.711 22.9531 179.414 23.0625C179.117 23.1667 178.854 23.3281 178.625 23.5469C178.396 23.7604 178.216 24.0286 178.086 24.3516C177.956 24.6745 177.891 25.0495 177.891 25.4766V30H176.047V21.3516H177.484L177.734 22.875H177.82C177.992 22.5677 178.206 22.2865 178.461 22.0312C178.716 21.776 179.008 21.5729 179.336 21.4219C179.669 21.2656 180.034 21.1875 180.43 21.1875ZM184.93 30L181.641 21.3516H183.586L185.367 26.4297C185.482 26.7526 185.586 27.1016 185.68 27.4766C185.773 27.8516 185.839 28.1667 185.875 28.4219H185.938C185.974 28.1562 186.044 27.8385 186.148 27.4688C186.253 27.0938 186.359 26.7474 186.469 26.4297L188.25 21.3516H190.188L186.898 30H184.93ZM194.945 21.1875C195.716 21.1875 196.378 21.3464 196.93 21.6641C197.482 21.9818 197.906 22.4323 198.203 23.0156C198.5 23.599 198.648 24.2969 198.648 25.1094V26.0938H192.875C192.896 26.9323 193.12 27.5781 193.547 28.0312C193.979 28.4844 194.583 28.7109 195.359 28.7109C195.911 28.7109 196.406 28.6589 196.844 28.5547C197.286 28.4453 197.742 28.2865 198.211 28.0781V29.5703C197.779 29.7734 197.339 29.9219 196.891 30.0156C196.443 30.1094 195.906 30.1562 195.281 30.1562C194.432 30.1562 193.685 29.9922 193.039 29.6641C192.398 29.3307 191.896 28.8359 191.531 28.1797C191.172 27.5234 190.992 26.7083 190.992 25.7344C190.992 24.7656 191.156 23.9427 191.484 23.2656C191.812 22.5885 192.273 22.0729 192.867 21.7188C193.461 21.3646 194.154 21.1875 194.945 21.1875ZM194.945 22.5703C194.367 22.5703 193.898 22.7578 193.539 23.1328C193.185 23.5078 192.977 24.0573 192.914 24.7812H196.852C196.846 24.349 196.773 23.9661 196.633 23.6328C196.497 23.2995 196.289 23.0391 196.008 22.8516C195.732 22.6641 195.378 22.5703 194.945 22.5703ZM203.625 30.1562C202.594 30.1562 201.766 29.7812 201.141 29.0312C200.521 28.276 200.211 27.1641 200.211 25.6953C200.211 24.2109 200.526 23.0885 201.156 22.3281C201.792 21.5677 202.628 21.1875 203.664 21.1875C204.102 21.1875 204.484 21.2474 204.812 21.3672C205.141 21.4818 205.422 21.638 205.656 21.8359C205.896 22.0339 206.099 22.2552 206.266 22.5H206.352C206.326 22.3385 206.294 22.1068 206.258 21.8047C206.227 21.4974 206.211 21.2135 206.211 20.9531V17.8438H208.055V30H206.617L206.289 28.8203H206.211C206.055 29.0703 205.857 29.2969 205.617 29.5C205.383 29.6979 205.102 29.8568 204.773 29.9766C204.451 30.0964 204.068 30.1562 203.625 30.1562ZM204.141 28.6641C204.927 28.6641 205.482 28.4375 205.805 27.9844C206.128 27.5312 206.294 26.8516 206.305 25.9453V25.7031C206.305 24.7344 206.148 23.9922 205.836 23.4766C205.523 22.9557 204.953 22.6953 204.125 22.6953C203.464 22.6953 202.958 22.9635 202.609 23.5C202.266 24.0312 202.094 24.7734 202.094 25.7266C202.094 26.6797 202.266 27.4089 202.609 27.9141C202.958 28.4141 203.469 28.6641 204.141 28.6641Z" fill="#670316"/>
</g>
<defs>
<filter id="filter0_d_19_4315" x="0" y="0" width="226" height="56" filterUnits="userSpaceOnUse" color-interpolation-filters="sRGB">
<feFlood flood-opacity="0" result="BackgroundImageFix"/>
<feColorMatrix in="SourceAlpha" type="matrix" values="0 0 0 0 0 0 0 0 0 0 0 0 0 0 0 0 0 0 127 0" result="hardAlpha"/>
<feOffset dy="4"/>
<feGaussianBlur stdDeviation="2"/>
<feComposite in2="hardAlpha" operator="out"/>
<feColorMatrix type="matrix" values="0 0 0 0 0 0 0 0 0 0 0 0 0 0 0 0 0 0 0.1 0"/>
<feBlend mode="normal" in2="BackgroundImageFix" result="effect1_dropShadow_19_4315"/>
<feBlend mode="normal" in="SourceGraphic" in2="effect1_dropShadow_19_4315" result="shape"/>
</filter>
</defs>
</svg>
