<svg width="45" height="45" viewBox="0 0 45 45" fill="none" xmlns="http://www.w3.org/2000/svg">
<path d="M20.5403 9.61663C20.9752 7.48245 24.0248 7.48245 24.4597 9.61663L24.7882 11.2284C25.0863 12.6912 26.8238 13.3236 27.9924 12.3946L29.28 11.3711C30.985 10.0158 33.3212 11.976 32.2825 13.8905L31.4981 15.3362C30.7862 16.6484 31.7107 18.2497 33.203 18.2893L34.8473 18.3329C37.0246 18.3906 37.5542 21.3939 35.5279 22.1928L33.9977 22.7961C32.6089 23.3437 32.2878 25.1647 33.4056 26.1542L34.6372 27.2445C36.268 28.6883 34.7432 31.3293 32.6775 30.6389L31.1174 30.1174C29.7016 29.6442 28.2851 30.8327 28.5053 32.3093L28.7479 33.9361C29.0692 36.0904 26.2035 37.1334 25.0648 35.2767L24.2049 33.8745C23.4245 32.6018 21.5755 32.6019 20.7951 33.8745L19.9352 35.2767C18.7965 37.1334 15.9308 36.0904 16.2521 33.9361L16.4947 32.3093C16.7149 30.8327 15.2984 29.6442 13.8826 30.1174L12.3225 30.6389C10.2568 31.3293 8.73201 28.6883 10.3628 27.2445L11.5944 26.1542C12.7122 25.1647 12.3911 23.3437 11.0023 22.7961L9.47206 22.1928C7.44582 21.3939 7.97538 18.3906 10.1527 18.3329L11.797 18.2893C13.2893 18.2497 14.2138 16.6484 13.5019 15.3362L12.7175 13.8905C11.6788 11.976 14.015 10.0158 15.72 11.3711L17.0076 12.3946C18.1762 13.3236 19.9137 12.6912 20.2118 11.2284L20.5403 9.61663Z" fill="#BF021F"/>
<circle cx="22.5" cy="22.5" r="4.5" fill="#E50025"/>
</svg>
