<svg width="31" height="35" viewBox="0 0 31 35" fill="none" xmlns="http://www.w3.org/2000/svg">
<path d="M13.5768 1.73897C14.129 -0.195884 16.871 -0.195877 17.4232 1.73898L19.2658 8.19528C19.562 9.23319 20.6283 9.84883 21.6753 9.5864L28.1878 7.95393C30.1396 7.46471 31.5106 9.83941 30.1111 11.285L25.441 16.1089C24.6903 16.8844 24.6903 18.1156 25.441 18.8911L30.1111 23.715C31.5106 25.1606 30.1396 27.5353 28.1878 27.0461L21.6752 25.4136C20.6283 25.1512 19.562 25.7668 19.2658 26.8047L17.4232 33.261C16.871 35.1959 14.129 35.1959 13.5768 33.261L11.7342 26.8047C11.438 25.7668 10.3717 25.1512 9.32475 25.4136L2.81215 27.0461C0.860432 27.5353 -0.510595 25.1606 0.888947 23.715L5.55899 18.8911C6.30975 18.1156 6.30975 16.8844 5.55899 16.1089L0.888941 11.285C-0.510601 9.83941 0.860437 7.46471 2.81216 7.95394L9.32475 9.5864C10.3717 9.84883 11.438 9.23319 11.7342 8.19527L13.5768 1.73897Z" fill="#D4AE6A"/>
</svg>
