<svg width="10" height="10" viewBox="0 0 10 10" fill="none" xmlns="http://www.w3.org/2000/svg">
<g clip-path="url(#clip0_2384_1054)">
<path d="M9 4.63429V5.00229C8.99951 5.86486 8.7202 6.70416 8.20373 7.39502C7.68727 8.08588 6.96131 8.59128 6.13414 8.83585C5.30697 9.08042 4.4229 9.05105 3.61379 8.75212C2.80467 8.45319 2.11386 7.90073 1.64438 7.17711C1.17491 6.4535 0.951916 5.59751 1.00867 4.73681C1.06542 3.87611 1.39888 3.05682 1.95931 2.40112C2.51974 1.74542 3.27711 1.28844 4.11847 1.09835C4.95984 0.908253 5.84011 0.995224 6.628 1.34629M9 1.80229L5 5.80629L3.8 4.60629" stroke="#039855" stroke-linecap="round" stroke-linejoin="round"/>
</g>
<defs>
<clipPath id="clip0_2384_1054">
<rect width="10" height="10" fill="white"/>
</clipPath>
</defs>
</svg>
