<svg width="20" height="18" viewBox="0 0 20 18" fill="none" xmlns="http://www.w3.org/2000/svg">
<path d="M19.16 1.25C18.961 1.0752 18.7007 0.9865 18.4364 1.00337C18.172 1.02025 17.9252 1.14131 17.75 1.34L15.88 3.49L15.25 2.78C15.0736 2.58109 14.8255 2.46039 14.5601 2.44445C14.2947 2.4285 14.0339 2.51863 13.835 2.695C13.6361 2.87137 13.5154 3.11953 13.4994 3.3849C13.4835 3.65026 13.5736 3.91109 13.75 4.11L15.14 5.67C15.2346 5.77485 15.3504 5.85847 15.4796 5.91535C15.6089 5.97223 15.7488 6.00108 15.89 6C16.0303 5.99841 16.1687 5.96732 16.2962 5.90874C16.4237 5.85017 16.5374 5.76542 16.63 5.66L19.24 2.66C19.416 2.46226 19.5065 2.20278 19.4915 1.93847C19.4765 1.67415 19.3573 1.42657 19.16 1.25ZM7.5 8C8.29113 8 9.06448 7.76541 9.72228 7.32588C10.3801 6.88635 10.8928 6.26164 11.1955 5.53074C11.4983 4.79983 11.5775 3.99556 11.4231 3.21964C11.2688 2.44372 10.8878 1.73098 10.3284 1.17157C9.76902 0.612164 9.05628 0.231202 8.28036 0.0768607C7.50444 -0.0774802 6.70017 0.00173312 5.96927 0.304484C5.23836 0.607234 4.61365 1.11992 4.17412 1.77772C3.7346 2.43552 3.5 3.20888 3.5 4C3.5 5.06087 3.92143 6.07828 4.67157 6.82843C5.42172 7.57857 6.43913 8 7.5 8ZM7.5 2C7.89556 2 8.28224 2.1173 8.61114 2.33706C8.94004 2.55683 9.19638 2.86918 9.34776 3.23463C9.49913 3.60009 9.53874 4.00222 9.46157 4.39018C9.3844 4.77814 9.19392 5.13451 8.91421 5.41422C8.63451 5.69392 8.27814 5.8844 7.89018 5.96157C7.50222 6.03874 7.10009 5.99914 6.73463 5.84776C6.36918 5.69639 6.05682 5.44004 5.83706 5.11114C5.6173 4.78224 5.5 4.39556 5.5 4C5.5 3.46957 5.71071 2.96086 6.08579 2.58579C6.46086 2.21072 6.96957 2 7.5 2ZM7.5 10C5.64348 10 3.86301 10.7375 2.55025 12.0503C1.2375 13.363 0.5 15.1435 0.5 17C0.5 17.2652 0.605357 17.5196 0.792893 17.7071C0.98043 17.8946 1.23478 18 1.5 18C1.76522 18 2.01957 17.8946 2.20711 17.7071C2.39464 17.5196 2.5 17.2652 2.5 17C2.5 15.6739 3.02678 14.4022 3.96447 13.4645C4.90215 12.5268 6.17392 12 7.5 12C8.82608 12 10.0979 12.5268 11.0355 13.4645C11.9732 14.4022 12.5 15.6739 12.5 17C12.5 17.2652 12.6054 17.5196 12.7929 17.7071C12.9804 17.8946 13.2348 18 13.5 18C13.7652 18 14.0196 17.8946 14.2071 17.7071C14.3946 17.5196 14.5 17.2652 14.5 17C14.5 15.1435 13.7625 13.363 12.4497 12.0503C11.137 10.7375 9.35652 10 7.5 10Z" fill="#670316"/>
</svg>
