<svg width="12" height="12" viewBox="0 0 12 12" fill="none" xmlns="http://www.w3.org/2000/svg">
<path d="M5 7.97461C5.25 8.12461 5.6 8.22461 6 8.22461C6.4 8.22461 6.75 8.12461 7 7.97461M7.5 5.97461H7.505" stroke="#670316" stroke-width="1.5" stroke-linecap="round" stroke-linejoin="round"/>
<path d="M9.69 3.38111C10.0406 3.89081 10.2822 4.46731 10.4 5.07461C10.5691 5.15649 10.7117 5.28435 10.8114 5.44352C10.9112 5.6027 10.9641 5.78675 10.9641 5.97461C10.9641 6.16247 10.9112 6.34652 10.8114 6.5057C10.7117 6.66487 10.5691 6.79272 10.4 6.87461C10.1841 7.88135 9.62958 8.78362 8.82884 9.43087C8.0281 10.0781 7.02962 10.4312 6 10.4312C4.97038 10.4312 3.97189 10.0781 3.17116 9.43087C2.37042 8.78362 1.81585 7.88135 1.6 6.87461C1.43093 6.79272 1.28834 6.66487 1.18857 6.5057C1.0888 6.34652 1.03589 6.16247 1.03589 5.97461C1.03589 5.78675 1.0888 5.6027 1.18857 5.44352C1.28834 5.28435 1.43093 5.15649 1.6 5.07461C1.80713 4.05986 2.35795 3.14762 3.15951 2.49179C3.96108 1.83597 4.96433 1.4767 6 1.47461C7 1.47461 7.75 2.02461 7.75 2.72461C7.75 3.42461 7.3 3.97461 6.75 3.97461C6.35 3.97461 6 3.77461 6 3.47461M4.5 5.97461H4.505" stroke="#670316" stroke-width="1.5" stroke-linecap="round" stroke-linejoin="round"/>
</svg>
